<svg width="50" height="34" viewBox="0 0 50 34" fill="none" xmlns="http://www.w3.org/2000/svg">
<path d="M45.8252 12.0469H47.5615L50.1182 19.3545L52.6748 12.0469H54.4111L50.8154 22H49.4209L45.8252 12.0469ZM44.8887 12.0469H46.6182L46.9326 19.1699V22H44.8887V12.0469ZM53.6182 12.0469H55.3545V22H53.3037V19.1699L53.6182 12.0469ZM59.1074 14.6035V22H57.1318V14.6035H59.1074ZM57.0088 12.6758C57.0088 12.3887 57.109 12.1517 57.3096 11.9648C57.5101 11.778 57.779 11.6846 58.1162 11.6846C58.4489 11.6846 58.7155 11.778 58.916 11.9648C59.1211 12.1517 59.2236 12.3887 59.2236 12.6758C59.2236 12.9629 59.1211 13.1999 58.916 13.3867C58.7155 13.5736 58.4489 13.667 58.1162 13.667C57.779 13.667 57.5101 13.5736 57.3096 13.3867C57.109 13.1999 57.0088 12.9629 57.0088 12.6758ZM62.3203 14.6035L63.5439 16.8525L64.8018 14.6035H66.9004L64.8086 18.2197L66.9961 22H64.8906L63.5576 19.6211L62.2246 22H60.1191L62.3066 18.2197L60.2148 14.6035H62.3203ZM69.9355 11.5V22H67.96V11.5H69.9355ZM75.5547 20.332V17.0371C75.5547 16.8001 75.516 16.5973 75.4385 16.4287C75.361 16.2555 75.2402 16.1211 75.0762 16.0254C74.9167 15.9297 74.7093 15.8818 74.4541 15.8818C74.2354 15.8818 74.0462 15.9206 73.8867 15.998C73.7272 16.071 73.6042 16.1781 73.5176 16.3193C73.431 16.4561 73.3877 16.6178 73.3877 16.8047H71.4189C71.4189 16.4902 71.4919 16.1917 71.6377 15.9092C71.7835 15.6266 71.9954 15.3783 72.2734 15.1641C72.5514 14.9453 72.8818 14.7744 73.2646 14.6514C73.652 14.5283 74.085 14.4668 74.5635 14.4668C75.1377 14.4668 75.6481 14.5625 76.0947 14.7539C76.5413 14.9453 76.8923 15.2324 77.1475 15.6152C77.4072 15.998 77.5371 16.4766 77.5371 17.0508V20.2158C77.5371 20.6214 77.5622 20.9541 77.6123 21.2139C77.6624 21.4691 77.7354 21.6924 77.8311 21.8838V22H75.8418C75.7461 21.7995 75.6732 21.5488 75.623 21.248C75.5775 20.9427 75.5547 20.6374 75.5547 20.332ZM75.8145 17.4951L75.8281 18.6094H74.7275C74.4678 18.6094 74.2422 18.639 74.0508 18.6982C73.8594 18.7575 73.7021 18.8418 73.5791 18.9512C73.4561 19.056 73.3649 19.179 73.3057 19.3203C73.251 19.4616 73.2236 19.6165 73.2236 19.7852C73.2236 19.9538 73.2624 20.1064 73.3398 20.2432C73.4173 20.3753 73.529 20.4801 73.6748 20.5576C73.8206 20.6305 73.9915 20.667 74.1875 20.667C74.4837 20.667 74.7412 20.6077 74.96 20.4893C75.1787 20.3708 75.3473 20.2249 75.4658 20.0518C75.5889 19.8786 75.6527 19.7145 75.6572 19.5596L76.1768 20.3936C76.1038 20.5804 76.0036 20.7741 75.876 20.9746C75.7529 21.1751 75.5957 21.3643 75.4043 21.542C75.2129 21.7152 74.9827 21.8587 74.7139 21.9727C74.445 22.082 74.126 22.1367 73.7568 22.1367C73.2874 22.1367 72.8613 22.0433 72.4785 21.8564C72.1003 21.665 71.7995 21.403 71.5762 21.0703C71.3574 20.7331 71.248 20.3503 71.248 19.9219C71.248 19.5345 71.321 19.1904 71.4668 18.8896C71.6126 18.5889 71.8268 18.3359 72.1094 18.1309C72.3965 17.9212 72.7542 17.764 73.1826 17.6592C73.611 17.5498 74.1077 17.4951 74.6729 17.4951H75.8145ZM79.0547 11.5H81.0234V20.3047L80.8252 22H79.0547V11.5ZM85.7061 18.2266V18.3701C85.7061 18.9215 85.6468 19.4274 85.5283 19.8877C85.4144 20.348 85.2367 20.7467 84.9951 21.084C84.7536 21.4167 84.4528 21.6764 84.0928 21.8633C83.7373 22.0456 83.318 22.1367 82.835 22.1367C82.3838 22.1367 81.9919 22.0456 81.6592 21.8633C81.3311 21.681 81.0553 21.4235 80.832 21.0908C80.6087 20.7581 80.4287 20.3685 80.292 19.9219C80.1553 19.4753 80.0527 18.9876 79.9844 18.459V18.1445C80.0527 17.6159 80.1553 17.1283 80.292 16.6816C80.4287 16.235 80.6087 15.8454 80.832 15.5127C81.0553 15.18 81.3311 14.9225 81.6592 14.7402C81.9873 14.5579 82.3747 14.4668 82.8213 14.4668C83.3089 14.4668 83.7327 14.5602 84.0928 14.7471C84.4574 14.9294 84.7581 15.1891 84.9951 15.5264C85.2367 15.859 85.4144 16.2555 85.5283 16.7158C85.6468 17.1715 85.7061 17.6751 85.7061 18.2266ZM83.7373 18.3701V18.2266C83.7373 17.9258 83.7145 17.6432 83.6689 17.3789C83.6279 17.11 83.555 16.8753 83.4502 16.6748C83.3454 16.4697 83.2018 16.3079 83.0195 16.1895C82.8418 16.071 82.6117 16.0117 82.3291 16.0117C82.0602 16.0117 81.8324 16.0573 81.6455 16.1484C81.4587 16.2396 81.3037 16.3672 81.1807 16.5312C81.0622 16.6953 80.9733 16.8913 80.9141 17.1191C80.8548 17.3424 80.8184 17.5885 80.8047 17.8574V18.7529C80.8184 19.113 80.8776 19.432 80.9824 19.71C81.0918 19.9834 81.2559 20.1999 81.4746 20.3594C81.6979 20.5143 81.9873 20.5918 82.3428 20.5918C82.6208 20.5918 82.8509 20.5371 83.0332 20.4277C83.2155 20.3184 83.3568 20.1634 83.457 19.9629C83.5618 19.7624 83.6348 19.5277 83.6758 19.2588C83.7168 18.9854 83.7373 18.6891 83.7373 18.3701Z" fill="#333333"/>
<path d="M35.0463 0H0.214311C0.0960349 0 0 0.0964564 0 0.215448V33.7193C0 33.8383 0.0960349 33.9347 0.214311 33.9347H35.0463C35.1646 33.9347 35.26 33.8383 35.26 33.7193V0.215448C35.26 0.0964564 35.1646 0 35.0463 0Z" fill="#74A512"/>
<path d="M9.31909 7.46802V26.4666" stroke="white" stroke-width="3.08178"/>
<path d="M15.012 7.46802V16.9314" stroke="white" stroke-width="3.07593"/>
<path d="M19.3488 7.46875V10.6831H24.7812L28.7219 18.826H32.2702L26.6348 7.46875H19.3488Z" fill="white"/>
<path d="M20.963 14.1665V26.8438" stroke="white" stroke-width="3.56014"/>
</svg>
